<svg width="41" height="27" viewBox="0 0 41 27" fill="none" xmlns="http://www.w3.org/2000/svg">
<path d="M0.114746 20.8835C3.49523 20.2873 6.81508 19.6309 10.1551 19.1349C15.1829 18.3934 19.8671 16.5646 24.6271 14.9313C27.3203 14.0094 30.1349 13.2929 32.9545 12.9372C34.9555 12.6816 37.0677 13.0975 39.104 13.3781C40.3926 13.5585 40.4128 13.7639 40.145 15.1968C35.7994 13.9843 31.474 14.1998 27.1738 15.4724C31.5194 14.7609 35.8499 14.33 40.0995 16.0987C39.5184 18.8393 38.1339 20.9837 36.0419 22.6672C33.0859 25.0421 29.7003 26.485 25.9055 26.6905C21.0192 26.956 17.4113 24.6513 14.7938 20.6981C14.4098 20.117 14.0207 19.9015 13.3436 19.9316C10.6655 20.0418 8.1137 20.623 5.64781 21.6651C4.54119 22.1361 3.39417 22.562 2.22186 22.8175C0.766581 23.1532 0.124852 22.5119 0.114746 20.8835Z" fill="#F54748"/>
<path d="M18.0734 16.1482C17.6388 14.7854 17.3002 12.8915 18.2654 11.3984C18.614 10.8573 18.9071 10.717 19.2254 10.2611C19.847 9.35924 20.2209 7.70083 18.8414 4.37399C19.3164 4.70968 19.943 5.25079 20.3725 6.0825C20.8626 7.02945 20.797 7.76095 20.9485 8.55258C21.1254 9.4895 21.656 10.7621 23.2477 12.16C23.0809 11.649 22.9041 10.9375 22.8636 10.0707C22.8283 9.21895 22.9344 8.49747 23.0557 7.98141C23.2376 8.50749 23.5307 9.17888 24.0157 9.88032C24.3391 10.3463 24.6726 10.722 24.9758 11.0177C24.5564 10.4064 24.0006 9.44442 23.6368 8.16679C23.3589 7.18978 23.0557 5.55642 23.4448 3.60741C23.7783 1.93898 24.4857 0.711463 24.9758 0C24.9404 0.611257 24.9556 1.77866 25.5519 3.03624C26.4665 4.97523 28.134 5.83199 28.614 6.07249C29.8166 6.67372 30.0642 6.34805 32.4442 7.02444C34.3037 7.55052 35.2335 7.81607 36.0824 8.54256C36.5675 8.95341 37.6943 10.0857 37.9975 12.5308C36.9061 12.3504 35.4306 12.1901 33.6873 12.2452C31.7368 12.3053 30.2714 12.6059 29.281 12.8164C27.7651 13.137 26.5473 13.5378 24.1118 14.3345C22.6969 14.8004 21.6863 15.1662 19.8975 15.6622C19.1345 15.8827 18.5029 16.043 18.0734 16.1482Z" fill="#FDC55E"/>
<path d="M30.0337 12.4705C30.0589 12.5507 31.1706 12.1098 32.7168 11.8993C34.5561 11.6488 36.1479 11.8392 37.3151 12.0897C37.3252 11.258 37.0877 10.6818 36.9311 10.3812C36.5218 9.58459 35.8901 9.14368 35.208 8.67271C34.6774 8.30195 34.1974 8.06144 33.8689 7.91113C34.3136 8.25684 34.8644 8.75286 35.4 9.42925C35.9558 10.1307 36.3146 10.8021 36.547 11.3282C35.7739 11.2079 34.6319 11.1127 33.2929 11.3282C31.4788 11.6288 30.0033 12.3803 30.0337 12.4705Z" fill="white"/>
</svg>
